# xmcd
#
# Track frame offsets: 
#        150
#        13095
#        31293
#        42091
#        62271
#        72655
#        84902
#        97551
#        111175
#        123822
#        138759
#        152661
#
# Disc length: 2325 seconds
#
# Revision: 1
# Processed by: cddbd v1.5.2PL0 Copyright (c) Steve Scherf et al.
# Submitted via: ExactAudioCopyFreeDBPlugin 1.0
#
DISCID=8609130c
DTITLE=Paul Kelly - Hooked, Hogtied and Collared
DYEAR=1974
DGENRE=Soul
TTITLE0=Let Your Love Come Down (Let It Fall On Me)
TTITLE1=I Wanna Be Close To You
TTITLE2=Take It Away From Him (Put It On Me)
TTITLE3=Try My Love
TTITLE4=Till I Get To My Baby's Love
TTITLE5=Hooked, Hogtied and Collared
TTITLE6=You Make Me Tremble
TTITLE7=You Turned A Lion Into A Lamb
TTITLE8=I'm Gonna Be Lovin' You
TTITLE9=I Believe I Can
TTITLE10=I'm Into Somethin' I Can't Shake Loose
TTITLE11=Holding On For Dear Life
EXTD=
EXTT0=
EXTT1=
EXTT2=
EXTT3=
EXTT4=
EXTT5=
EXTT6=
EXTT7=
EXTT8=
EXTT9=
EXTT10=
EXTT11=
PLAYORDER=
